<?xml version="1.0" encoding="UTF-8" standalone="no"?>
<!-- Generator: Gravit.io -->
<svg xmlns="http://www.w3.org/2000/svg" xmlns:xlink="http://www.w3.org/1999/xlink" style="isolation:isolate" viewBox="-103.159 426.154 843.828 133.504" width="843.828" height="133.504"><g><path d=" M -100.525 431.551 C -99.042 445.559 -93.929 460.741 -95.238 473.97 C -90.203 502.033 -101.417 529.116 -101.283 553.527" fill="none" vector-effect="non-scaling-stroke" stroke-width="3.75" stroke="rgb(0,0,0)" stroke-linejoin="round" stroke-linecap="round" stroke-miterlimit="4"/><path d=" M -30.825 432.309 C -26.852 468.596 -37.578 522.509 -27.037 550.496" fill="none" vector-effect="non-scaling-stroke" stroke-width="3.75" stroke="rgb(0,0,0)" stroke-linejoin="round" stroke-linecap="round" stroke-miterlimit="4"/><path d=" M -94.464 489.13 C -87.548 488.473 -81.311 484.942 -74.421 484.08 C -68.153 482.34 -61.567 482.896 -55.298 481.377 C -47.774 479.673 -40.035 478.756 -32.329 479.293 C -31.642 479.194 -30.06 478.876 -30.067 480.038" fill="none" vector-effect="non-scaling-stroke" stroke-width="3.75" stroke="rgb(0,0,0)" stroke-linejoin="round" stroke-linecap="round" stroke-miterlimit="4"/><g><path d=" M -2.63 552.158 C 0.049 536.023 6.823 520.849 8.182 504.499 C 13.1 487.153 13.629 468.841 20.394 452.002 C 21.94 444.947 26.444 426.463 34.578 439.444 C 43.29 460.563 48.102 483.077 53.551 505.204 C 56.645 520.425 58.994 535.899 64.334 550.551" fill="none" vector-effect="non-scaling-stroke" stroke-width="3.75" stroke="rgb(0,0,0)" stroke-linejoin="miter" stroke-linecap="round" stroke-miterlimit="4"/><path d=" M 10.227 494.837 C 23.825 494.898 37.546 493.696 50.941 491.622" fill="none" vector-effect="non-scaling-stroke" stroke-width="3.75" stroke="rgb(0,0,0)" stroke-linejoin="miter" stroke-linecap="round" stroke-miterlimit="4"/></g><path d=" M 86.319 551.602 C 93.86 512.647 81.463 474.601 90.449 440.442 C 95.139 443.464 96.09 449.306 98.558 453.844 C 105.027 469.969 108.783 487.073 117.041 502.521 C 121.113 511.909 140.59 551.364 142.707 545.482 C 142.178 537.802 142.364 530.105 143.342 522.467 C 144.382 508.662 142.481 494.866 142.785 481.05 C 142.665 467.505 143.748 453.982 145.608 440.565 C 145.664 439.913 145.71 439.26 145.744 438.607" fill="none" vector-effect="non-scaling-stroke" stroke-width="3.75" stroke="rgb(0,0,0)" stroke-linejoin="round" stroke-linecap="round" stroke-miterlimit="4"/><path d=" M 172.334 438.587 C 172.467 447.957 171.926 457.359 172.92 466.699 C 174.826 492.741 174.499 525.058 174.477 548.944 C 175.49 549.456 174.348 548.086 174.477 548.944" fill="none" vector-effect="non-scaling-stroke" stroke-width="3.75" stroke="rgb(0,0,0)" stroke-linejoin="miter" stroke-linecap="butt" stroke-miterlimit="4"/><path d=" M 169.334 438.587 C 169.334 438.587 182.702 439.072 188.747 442.417 C 194.876 444.794 199.712 449.461 204.585 453.701 C 210.059 459.933 211.841 468.337 214.102 476.095 C 217.415 489.669 216.422 503.765 216.367 517.601 C 215.828 526.101 211.293 533.819 205.643 539.962 C 198.307 546.471 176.793 554.305 171.476 548.944" fill="none" vector-effect="non-scaling-stroke" stroke-width="3.75" stroke="rgb(0,0,0)" stroke-linejoin="round" stroke-linecap="round" stroke-miterlimit="4"/><path d=" M 228.548 441.916 C 233.115 437.789 239.048 441.997 239.551 447.319 C 246.634 468.833 238.519 535.677 254.118 543.302 C 257.018 538.185 257.767 532.074 260.553 526.837 C 263.7 519.683 267.355 512.707 269.239 505.081 C 270.599 501.628 273.253 491.681 278.113 496.187 C 281.825 503.444 282.523 511.808 284.869 519.55 C 286.969 526.953 294.202 550.752 296.89 542.225 C 302.984 522.984 306.186 502.613 304.541 483.856 C 304.157 470.301 306.114 456.224 313.035 444.348 C 314.839 442.399 317.268 440.225 320.156 440.844" fill="none" vector-effect="non-scaling-stroke" stroke-width="3.75" stroke="rgb(0,0,0)" stroke-linejoin="round" stroke-linecap="round" stroke-miterlimit="4"/><g><path d=" M 330.065 550.875 C 332.744 534.74 339.518 519.566 340.877 503.216 C 345.795 485.87 346.324 467.558 353.089 450.719 C 354.635 443.664 359.139 425.18 367.273 438.161 C 375.985 459.279 380.797 481.794 386.245 503.921 C 389.34 519.142 391.689 534.616 397.029 549.268" fill="none" vector-effect="non-scaling-stroke" stroke-width="3.75" stroke="rgb(0,0,0)" stroke-linejoin="miter" stroke-linecap="round" stroke-miterlimit="4"/><path d=" M 342.922 493.554 C 356.52 493.615 370.241 492.412 383.636 490.339" fill="none" vector-effect="non-scaling-stroke" stroke-width="3.75" stroke="rgb(0,0,0)" stroke-linejoin="miter" stroke-linecap="round" stroke-miterlimit="4"/></g><path d=" M 407.632 440.463 C 426.112 455.81 420.574 488.31 427.137 507.655 C 428.931 520.515 432.516 531.994 439.656 544.615 C 457.943 540.104 457.357 479.508 463.615 462.245 C 467.95 455.806 470.174 447.164 477.381 442.715" fill="none" vector-effect="non-scaling-stroke" stroke-width="3.75" stroke="rgb(0,0,0)" stroke-linejoin="round" stroke-linecap="round" stroke-miterlimit="4"/><path d=" M 528.013 442.987 C 533.393 465.713 527.329 487.832 527.962 508.319 C 526.976 519.499 527.685 530.73 527.474 541.935 C 527.34 543.51 526.573 543.862 526.941 545.844" fill="none" vector-effect="non-scaling-stroke" stroke-width="3.75" stroke="rgb(0,0,0)" stroke-linejoin="round" stroke-linecap="round" stroke-miterlimit="4"/><path d=" M 500.691 546.38 C 510.956 546.262 521.27 546.615 531.504 546.204 C 537.608 545.444 543.79 545.995 549.934 545.844 C 551.02 545.844 552.105 545.844 553.191 545.844" fill="none" vector-effect="non-scaling-stroke" stroke-width="3.75" stroke="rgb(0,0,0)" stroke-linejoin="round" stroke-linecap="round" stroke-miterlimit="4"/><path d=" M 500.691 444.594 C 507.962 443.61 515.114 441.126 522.539 441.905 C 531.608 442.084 540.63 443.4 549.718 442.982 C 550.876 442.981 552.033 442.977 553.191 442.988" fill="none" vector-effect="non-scaling-stroke" stroke-width="3.75" stroke="rgb(0,0,0)" stroke-linejoin="round" stroke-linecap="round" stroke-miterlimit="4"/><path d=" M 576.516 549.842 C 584.057 510.887 571.66 472.841 580.646 438.682 C 585.336 441.703 586.287 447.546 588.755 452.084 C 595.224 468.208 598.98 485.312 607.238 500.761 C 611.31 510.149 630.787 549.604 632.904 543.721 C 632.375 536.042 632.561 528.345 633.539 520.707 C 634.579 506.902 632.678 493.106 632.982 479.29 C 632.862 465.745 633.945 452.221 635.805 438.805 C 635.861 438.153 635.907 437.5 635.941 436.847" fill="none" vector-effect="non-scaling-stroke" stroke-width="3.75" stroke="rgb(0,0,0)" stroke-linejoin="round" stroke-linecap="round" stroke-miterlimit="4"/><path d=" M 735.334 462.808 C 734.948 452.477 726.201 444.708 717.144 441.171 C 709.484 437.259 699.834 436.011 692.116 440.452 C 684.964 443.002 676.478 446.028 673.612 453.808 C 666.016 465.746 663.737 482.256 663.864 498.059 C 666.708 512.011 672.13 537.797 681.936 543.932 C 693.344 547.716 705.684 546.823 717.369 545.004 C 724.048 543.411 730.02 539.237 734.009 533.673 C 735.935 524.85 736.237 515.716 738.794 507.028 C 738.67 501.267 731.456 501.154 727.192 501.408 C 720.262 501.339 713.307 501.142 706.405 501.915" fill="none" vector-effect="non-scaling-stroke" stroke-width="3.75" stroke="rgb(0,0,0)" stroke-linejoin="round" stroke-linecap="round" stroke-miterlimit="4"/></g></svg>